<?xml version="1.0" ?><!DOCTYPE svg  PUBLIC '-//W3C//DTD SVG 1.1//EN'  'http://www.w3.org/Graphics/SVG/1.1/DTD/svg11.dtd'><svg enable-background="new 0 0 128 128" id="Layer_1" version="1.1" viewBox="0 0 128 128" xml:space="preserve" xmlns="http://www.w3.org/2000/svg" xmlns:xlink="http://www.w3.org/1999/xlink"><g><path d="M21.1,52.1h72.8c1.1,0,2,0.9,2,2c0,0.8,0.3,1.6,0.9,2.2c0.6,0.6,1.3,0.9,2.2,0.9c1.1,0,2,0.9,2,2V84   c0,1.1-0.9,2-2,2c-0.8,0-1.6,0.3-2.2,0.9c-0.6,0.6-0.9,1.3-0.9,2.2c0,1.1-0.9,2-2,2H21.1c-1.1,0-2-0.9-2-2c0-0.8-0.3-1.6-0.9-2.2   C17.6,86.4,16.8,86,16,86c-1.1,0-2-0.9-2-2V59.2c0-1.1,0.9-2,2-2c0.8,0,1.6-0.3,2.2-0.9c0.6-0.6,0.9-1.3,0.9-2.2   C19.1,53,20,52.1,21.1,52.1z M55.5,69.4v-4.8c-0.3,0.1-0.7,0.3-1,0.5c-0.9,0.6-1.3,1.3-1.3,2.3c0,0.4,0.1,0.8,0.3,1.1   c0.2,0.3,0.5,0.5,1,0.7C54.9,69.3,55.2,69.4,55.5,69.4z M59.5,73.2v5.4c0.4-0.1,0.9-0.3,1.2-0.5c0.9-0.5,1.3-1.3,1.3-2.2   c0-1-0.4-1.7-1.2-2.1C60.5,73.6,60.1,73.4,59.5,73.2z M55.5,59.2c0-1.1,0.9-2,2-2c1.1,0,2,0.9,2,2v2.1c1.6,0.1,2.9,0.5,4,1   c0.8,0.4,1.2,0.9,1.2,1.4c0,1.1-0.5,1.6-1.5,1.6c-0.2,0-0.9-0.2-2.1-0.6c-0.5-0.2-1.1-0.3-1.6-0.4v5.7c1.6,0.3,3,0.8,4,1.5   c1.3,0.9,1.9,2.2,1.9,4.1c0,2-0.7,3.5-2.2,4.7c-1,0.8-2.2,1.3-3.7,1.5V84c0,1.1-0.9,2-2,2c-1.1,0-2-0.9-2-2v-2.1   c-1.2-0.1-2.3-0.4-3.4-0.7c-1.7-0.5-2.5-1.2-2.5-1.8c0-1.2,0.5-1.9,1.6-1.9c0.2,0,1.1,0.2,2.5,0.7c0.6,0.2,1.3,0.4,1.9,0.5v-6.2   c-0.1,0-0.3-0.1-0.4-0.1c-0.5-0.1-1.2-0.3-1.9-0.6c-0.7-0.3-1.3-0.6-1.8-0.9c-0.4-0.3-0.8-0.8-1.1-1.4c-0.3-0.6-0.5-1.3-0.5-2   c0-1.8,0.8-3.3,2.4-4.5c1-0.7,2.1-1.3,3.3-1.5V59.2z M68.3,60.8c-2.8-2.8-6.6-4.5-10.8-4.5c-4.2,0-8.1,1.7-10.8,4.5   c-2.8,2.8-4.5,6.6-4.5,10.8c0,4.2,1.7,8.1,4.5,10.8c2.8,2.8,6.6,4.5,10.8,4.5c4.2,0,8.1-1.7,10.8-4.5c2.8-2.8,4.5-6.6,4.5-10.8   C72.8,67.4,71.1,63.5,68.3,60.8z M45.8,87c-0.7-0.5-1.4-1.1-2-1.8c-3.5-3.5-5.7-8.3-5.7-13.7c0-5.3,2.2-10.2,5.7-13.7   c0.6-0.6,1.3-1.2,2-1.8h-23c-0.3,1.1-1,2.2-1.8,3c-0.8,0.8-1.9,1.4-3,1.8v21.3c1.1,0.3,2.2,1,3,1.8c0.8,0.8,1.4,1.9,1.8,3H45.8z    M69.2,56.2c0.7,0.5,1.4,1.1,2,1.8c3.5,3.5,5.7,8.3,5.7,13.7c0,5.3-2.2,10.2-5.7,13.7c-0.6,0.6-1.3,1.2-2,1.8h23   c0.3-1.1,1-2.2,1.8-3c0.8-0.8,1.9-1.4,3-1.8V60.9c-1.1-0.3-2.2-1-3-1.8c-0.8-0.8-1.4-1.9-1.8-3H69.2z M105.2,41H35.8   c-0.3,1.1-1,2.2-1.8,3c-0.2,0.2-0.4,0.4-0.6,0.6h66.2l0.1,0h0l0.1,0h0l0.1,0h0l0.1,0l0.1,0h0l0.1,0h0l0.1,0l0,0l0.1,0l0,0l0.1,0   l0,0l0.1,0l0,0c2.1,0.3,4,1.2,5.4,2.7c0,0,0.1,0.1,0.1,0.1l0,0l0,0l0,0l0,0l0,0l0,0l0,0l0,0l0,0l0,0l0,0l0,0l0,0l0,0l0,0l0,0l0,0   l0,0l0,0l0,0l0,0l0,0l0,0l0,0l0,0l0,0l0,0l0,0l0,0l0,0l0,0l0,0l0,0l0,0l0,0l0,0l0,0l0,0l0,0l0,0l0,0l0,0l0,0l0,0l0,0l0,0l0,0l0,0   l0,0l0,0l0,0l0,0l0,0l0,0l0,0l0,0l0,0l0,0l0,0l0,0l0,0l0,0l0,0l0,0l0,0l0,0l0,0.1l0,0l0,0l0.1,0.1l0,0.1l0,0l0,0l0,0l0,0l0,0l0,0   l0,0l0,0l0,0l0,0l0,0l0,0l0,0l0,0l0,0l0,0l0,0l0,0l0,0l0,0l0,0l0,0l0,0l0,0l0,0l0,0l0,0l0,0l0,0l0,0l0,0l0,0l0,0l0,0l0,0l0,0l0,0   l0,0l0,0l0,0l0,0l0,0l0,0l0,0l0,0l0,0l0,0l0,0l0,0l0,0l0.1,0.1l0,0l0,0l0,0l0,0l0,0l0,0l0,0l0,0l0,0l0,0l0,0l0,0l0,0l0,0l0,0l0,0   l0,0l0,0l0,0l0,0l0,0l0,0l0,0l0,0l0,0l0,0l0,0l0,0l0,0l0,0l0,0l0,0l0,0l0,0l0,0l0,0l0,0l0,0l0,0l0,0l0,0l0,0l0,0l0,0l0,0l0,0l0,0   l0,0l0,0l0,0l0,0l0,0l0,0l0,0l0,0l0,0l0,0l0,0l0,0l0.1,0.1l0,0l0,0l0,0l0,0.1l0.1,0.1l0.1,0.1l0.1,0.1l0.1,0.2l0,0l0,0l0,0l0,0l0,0   l0,0l0,0l0,0l0,0l0,0l0,0l0,0l0,0l0,0l0,0l0,0l0,0l0,0l0,0l0,0l0,0l0,0l0,0l0,0l0,0l0,0l0,0l0,0l0,0l0,0l0,0l0,0l0,0l0,0l0,0l0,0   l0,0l0,0l0,0l0,0l0,0l0,0l0,0l0,0l0,0l0,0l0,0l0,0l0,0l0,0l0,0l0,0l0,0l0,0l0,0l0,0l0,0l0,0l0,0l0,0l0,0l0,0l0,0l0,0l0,0l0,0l0,0   l0,0.1l0,0l0,0l0,0l0,0l0,0l0,0l0,0l0,0l0,0l0,0l0,0l0,0l0,0l0,0l0,0l0,0l0,0l0,0l0,0l0,0l0,0l0,0l0,0l0,0l0,0l0,0l0,0l0,0l0,0l0,0   l0,0l0,0l0,0l0,0l0,0l0,0l0,0l0,0l0,0l0,0l0,0l0,0l0,0l0,0l0,0l0,0l0,0l0,0l0,0l0,0l0,0l0,0l0,0l0,0l0,0l0,0l0,0l0,0l0,0l0,0.1v0   l0,0l0,0l0,0l0,0l0,0l0,0l0,0l0,0l0,0l0,0l0,0l0,0l0,0l0,0l0,0l0,0l0,0l0,0l0,0l0,0l0,0l0,0l0,0l0,0l0,0l0,0l0,0l0,0l0,0l0,0l0,0   l0,0l0,0l0,0l0,0l0,0l0,0l0,0l0,0l0,0l0,0l0,0l0,0l0,0l0,0l0,0l0,0l0,0l0,0l0,0l0,0l0,0l0,0l0,0l0,0l0,0l0,0.1l0,0l0,0l0,0l0,0l0,0   l0,0l0,0l0,0l0,0l0,0l0,0l0,0l0,0l0,0l0,0l0,0l0,0l0,0l0,0l0,0l0,0l0,0l0,0l0,0l0,0l0,0l0,0l0,0l0,0l0,0l0,0l0,0l0,0l0,0l0,0l0,0   l0,0l0,0l0,0l0,0l0,0l0,0l0,0l0,0l0,0l0,0l0,0l0,0l0,0l0,0l0,0l0,0l0,0l0,0l0,0l0,0l0,0l0,0.1l0,0l0,0l0,0l0,0l0,0l0,0l0,0l0,0l0,0   l0,0l0,0l0,0l0,0l0,0l0,0l0,0l0,0l0,0l0,0l0,0l0,0l0,0l0,0l0,0l0,0l0,0l0,0l0,0l0,0l0,0l0,0l0,0l0,0l0,0l0,0l0,0l0,0l0,0l0,0l0,0   l0,0l0,0l0,0l0,0l0,0l0,0l0,0l0,0l0,0l0,0l0,0l0,0l0,0l0,0l0,0l0,0l0,0l0,0l0,0l0,0l0,0l0,0l0,0l0,0l0,0l0,0l0,0l0,0l0,0.1l0,0   l0,0.1l0,0l0,0l0,0l0,0l0,0l0,0l0,0l0,0l0,0l0,0l0,0l0,0l0,0l0,0l0,0l0,0l0,0l0,0l0,0l0,0l0,0l0,0l0,0l0,0l0,0l0,0l0,0l0,0l0,0l0,0   l0,0l0,0l0,0l0,0l0,0l0,0l0,0l0,0l0,0l0,0l0,0l0,0l0,0l0,0l0,0l0,0l0,0l0,0l0,0l0,0l0,0l0,0l0,0l0,0l0,0l0,0l0,0l0,0l0,0l0,0l0,0   l0,0l0,0l0,0l0,0l0,0l0,0.1l0,0l0,0.1l0,0.1l0,0.1l0,0.1l0,0.1l0,0.1l0,0.1l0,0l0,0.1l0,0l0,0l0,0.1l0,0l0,0.1l0,0l0,0l0,0.1l0,0   l0,0.1l0,0l0,0l0,0.1l0,0.1l0,0l0,0l0,0.1l0,0.1l0,0l0,0.1l0,0l0,0.1l0,0.1l0,0l0,0l0,0.1l0,0.1l0,0l0,0.1l0,0l0,0.1l0,0l0,0.1l0,0   l0,0.1l0,0l0,0.1l0,0.1v13.7c0.3-0.2,0.7-0.3,1-0.4V45.7c-1.1-0.3-2.2-1-3-1.8C106.2,43.1,105.5,42.1,105.2,41z M104.9,53.8   L104.9,53.8l0-0.1v0l0-0.1l0-0.1l0,0l0-0.1l0-0.1l0-0.1l0-0.1l0,0l0-0.1l0,0l0,0l0-0.1l0-0.1l0-0.1l0,0l0,0l0-0.1l0-0.1l0-0.1   l0-0.1l0-0.1l0-0.1l0-0.1l0,0l0-0.1l0-0.1l0-0.1l0,0l0,0l0-0.1l0-0.1l0-0.1l0-0.1l0-0.1l0,0l0-0.1l0-0.1l0,0l0-0.1l0,0l0-0.1l0-0.1   l0-0.1l0,0l0-0.1l0,0l0-0.1l0-0.1l0-0.1l0-0.1l0,0l0,0l0-0.1l0-0.1l0-0.1l0-0.1l0-0.1l0-0.1l0,0l0,0l0-0.1l0-0.1l0-0.1l0-0.1l0,0   l0,0l0,0l0,0l0,0l0,0l0,0l0,0l0,0l0,0l-0.1-0.1l0,0l0,0c0,0-0.1-0.1-0.1-0.1c-0.8-0.8-1.9-1.4-3.1-1.5l-0.1,0l0,0l-0.1,0h0l-0.1,0   h0l-0.1,0h0l-0.1,0h0l-0.1,0h0l-0.1,0h0l-0.1,0H29h-7.9h-5.7c-1.5,0-2.8,0.6-3.7,1.5l0,0c-1,1-1.5,2.3-1.5,3.7v35.6   c0,1.4,0.6,2.8,1.6,3.7l0,0l0,0c1,1,2.3,1.5,3.7,1.5h84.2c1.4,0,2.8-0.6,3.7-1.6c1-1,1.6-2.3,1.6-3.7v-7.9v-7.6V53.8z M34.1,36.9   h72.8c1.1,0,2,0.9,2,2c0,0.8,0.3,1.6,0.9,2.2c0.6,0.6,1.3,0.9,2.2,0.9c1.1,0,2,0.9,2,2v24.8c0,1.1-0.9,2-2,2   c-0.8,0-1.6,0.3-2.2,0.9c-0.6,0.6-0.9,1.3-0.9,2.2v5.6h3.7c1.4,0,2.8-0.6,3.7-1.6c1-1,1.6-2.3,1.6-3.7V38.6c0-1.4-0.6-2.7-1.5-3.6   c0,0-0.1-0.1-0.1-0.1c-1-1-2.3-1.6-3.7-1.6H28.4c-1.5,0-2.8,0.6-3.7,1.5l0,0c-1,1-1.5,2.3-1.5,3.7v5.9H27V44c0-1.1,0.9-2,2-2   c0.8,0,1.6-0.3,2.2-0.9c0.6-0.6,0.9-1.3,0.9-2.2C32.1,37.8,33,36.9,34.1,36.9z M15.4,44.5h3.7v-5.9c0-2.6,1-4.9,2.7-6.6l0,0l0,0   l0,0c1.7-1.7,4-2.7,6.6-2.7h84.2c2.6,0,4.9,1,6.6,2.7c0,0,0.1,0.1,0.1,0.1c1.6,1.7,2.6,4,2.6,6.5v35.6c0,2.6-1,4.9-2.7,6.6   c-1.7,1.7-4,2.7-6.6,2.7h-3.7v5.9c0,2.6-1,4.9-2.7,6.6c-1.7,1.7-4,2.7-6.6,2.7H15.4c-2.6,0-4.9-1-6.6-2.7l0,0   c-1.7-1.7-2.7-4-2.7-6.6V53.8c0-2.6,1-4.9,2.7-6.6l0,0l0,0l0,0C10.5,45.5,12.8,44.5,15.4,44.5z" fill="#2B2D03"/><path clip-rule="evenodd" d="M69.2,56.2c10.2,7.8,10.2,23.1,0,30.9h23c0.7-2.3,2.5-4.1,4.8-4.8   V60.9c-2.3-0.7-4.1-2.5-4.8-4.8H69.2z" fill="#C0D863" fill-rule="evenodd"/><path clip-rule="evenodd" d="M45.8,87c-10.2-7.8-10.2-23.1,0-30.9h-23   c-0.7,2.3-2.5,4.1-4.8,4.8v21.3c2.3,0.7,4.1,2.5,4.8,4.8H45.8z" fill="#C0D863" fill-rule="evenodd"/><path clip-rule="evenodd" d="M99.6,48.5H15.4c-2.9,0-5.3,2.4-5.3,5.3v35.6   c0,1.4,0.6,2.8,1.6,3.7l0,0c1,1,2.2,1.5,3.7,1.5h84.2c2.9,0,5.3-2.4,5.3-5.3V53.8c0-2.6-2-5-4.7-5.2L99.6,48.5z M93.9,91.1H21.1   c-1.1,0-2-0.9-2-2c0-1.7-1.4-3.1-3.1-3.1c-1.1,0-2-0.9-2-2V59.2c0-1.1,0.9-2,2-2c1.7,0,3.1-1.4,3.1-3.1c0-1.1,0.9-2,2-2h72.8   c1.1,0,2,0.9,2,2c0,1.7,1.4,3.1,3.1,3.1c1.1,0,2,0.9,2,2V84c0,1.1-0.9,2-2,2c-1.7,0-3.1,1.4-3.1,3.1C95.9,90.2,95,91.1,93.9,91.1z" fill="#C0D863" fill-rule="evenodd"/><path clip-rule="evenodd" d="M46.7,82.4c6,6,15.7,6,21.7,0c6-6,6-15.7,0-21.7   c-6-6-15.7-6-21.7,0C40.7,66.7,40.7,76.5,46.7,82.4z M51.1,77.5l4.4,1.2v-6.2c-1.2-0.2-3.1-0.7-4.1-1.5c-1-0.8-1.6-2.1-1.6-3.4   c0-3.2,2.8-5.4,5.7-6v-2.2c0-2.7,4-2.7,4,0v2.1c1.5,0.1,5.2,0.8,5.2,2.4c0,1.1-0.5,1.6-1.5,1.6l-3.7-1v5.7c3.3,0.7,5.9,1.9,5.9,5.6   c0,3.6-2.6,5.6-5.9,6.2V84c0,2.7-4,2.7-4,0v-2.1c-1.5-0.2-5.9-1-5.9-2.6C49.5,78.1,50.1,77.5,51.1,77.5z" fill="#FFE64C" fill-rule="evenodd"/><path clip-rule="evenodd" d="M53.2,67.4c0,1.4,0.9,1.7,2.3,2.1v-4.8   C54.2,65.1,53.2,66,53.2,67.4z" fill="#FFE64C" fill-rule="evenodd"/><path clip-rule="evenodd" d="M59.5,73.2v5.4c3.3-1,3-4,1.4-4.8C60.5,73.6,60.1,73.4,59.5,73.2z   " fill="#FFE64C" fill-rule="evenodd"/><path clip-rule="evenodd" d="M34.1,36.9h72.8c1.1,0,2,0.9,2,2c0,1.7,1.4,3.1,3.1,3.1   c1.1,0,2,0.9,2,2v24.8c0,1.1-0.9,2-2,2c-1.7,0-3.1,1.4-3.1,3.1v5.6h3.7c2.9,0,5.3-2.4,5.3-5.3V38.6c0-2.9-2.4-5.3-5.3-5.3H28.4   c-2.9,0-5.3,2.4-5.3,5.3v5.9H27V44c0-1.1,0.9-2,2-2c1.7,0,3.1-1.4,3.1-3.1C32.1,37.8,33,36.9,34.1,36.9z" fill="#99AF3E" fill-rule="evenodd"/><path clip-rule="evenodd" d="M105.2,41H35.8c-0.4,1.4-1.3,2.6-2.4,3.5h66.2   c2.6,0,5.1,1.1,6.9,3l1.8,3l0.6,3.3v13.7c0.3-0.2,0.7-0.3,1-0.4V45.7C107.7,45.1,105.9,43.2,105.2,41z" fill="#99AF3E" fill-rule="evenodd"/></g></svg>